<?xml version="1.0" encoding="UTF-8"?>
<!DOCTYPE svg PUBLIC "-//W3C//DTD SVG 1.1//EN" "http://www.w3.org/Graphics/SVG/1.1/DTD/svg11.dtd">
<!-- Creator: CorelDRAW 2019 (64-Bit) -->
<svg xmlns="http://www.w3.org/2000/svg" xml:space="preserve" width="2709px" height="480px" version="1.1" style="shape-rendering:geometricPrecision; text-rendering:geometricPrecision; image-rendering:optimizeQuality; fill-rule:evenodd; clip-rule:evenodd"
viewBox="0 0 2709 480.02"
 xmlns:xlink="http://www.w3.org/1999/xlink"
 xmlns:xodm="http://www.corel.com/coreldraw/odm/2003">
 <defs>
  <style type="text/css">
   <![CDATA[
    .fil0 {fill:#004F90;fill-rule:nonzero}
   ]]>
  </style>
 </defs>
 <g id="Layer_x0020_1">
  <metadata id="CorelCorpID_0Corel-Layer"/>
  <path class="fil0" d="M336.37 318.23c0,-43.47 -29.85,-72.41 -66.15,-89.94 -23.68,5.15 -51.49,8.16 -77.48,8.39l6.53 -16.22c5.9,-0.19 10.37,-0.55 15.17,-0.84l0 -108.73 46.86 0 0 101.7c39.27,-11.59 55.71,-34.89 55.71,-61.96 0,-34.68 -26.29,-51.24 -55.83,-51.24l-77.78 0.03 0 246.87c0,26.13 15.72,31.61 31.04,31.88l0 -128.4c17.57,-0.62 36.44,-3.11 46.86,-5.54l0 133.94c37.45,-0.03 75.07,-22.85 75.07,-59.94zm-34.62 -99.15l0 0c25.09,7.95 83.98,34.8 83.98,90.36 0,54.79 -51.65,87.43 -112.96,87.43l-178.46 0 0.18 -14.22c32.38,0 41.96,-4.27 41.96,-37.32l0 -209.11c0,-36.8 -14.52,-39.1 -42.02,-39.1l0 -13.23c5.14,-0.12 69.98,-0.03 120.01,0 -1.02,-25.92 -15.23,-27.8 -34.27,-27.8l0 -12.09 115.11 0 0 13.13c-18.56,0 -32.95,0.84 -33.98,26.76l11.47 0c25.89,0 89.46,8.91 89.58,61.25 0.09,36.73 -24.71,60.09 -60.6,73.94zm-121.58 217.04l0 0c19.04,0 33.25,-1.87 34.27,-27.76l46.86 0c1.03,25.89 15.42,26.74 33.98,26.74l0 13.13 -115.11 0 0 -12.11zm299.87 -196.12l0 0c0,-132.55 -107.48,-240 -240.01,-240 -132.57,0 -240.03,107.45 -240.03,240 0,132.54 107.46,240.02 240.03,240.02 132.53,0 240.01,-107.48 240.01,-240.02z"/>
  <path class="fil0" d="M1759.07 237.23c0,-25.83 -10.81,-48.18 -28.12,-60.09 -12.34,-8.48 -31.18,-13.09 -51.41,-13.09 -9.61,0 -14.28,0.33 -22.83,0.97l0 144.6c0,4.99 1.15,6.5 5.12,7.1 4.7,0.85 10.51,1.09 16.44,1.09 22.34,0 40.64,-5.51 54.67,-17.4 17.04,-14.28 26.13,-36.55 26.13,-63.18zm24.63 -1.64l0 0c0,33.99 -12.22,61.81 -35.95,80.56 -18,14.15 -40.79,20.71 -74.06,20.71 -6.8,0 -19.29,-0.56 -30.52,-0.56 -11.02,0 -20.36,0.24 -30.98,0.41l0 -5.66c21.62,0 21.62,-4.39 21.62,-66.08l0 -52.06c0,-58.39 0,-61.84 -20.66,-61.84l0 -5.35c8.4,0 21.92,-0.3 31.4,-0.3 10.66,0 18.7,-0.64 34.44,-0.64 30.71,0 48.53,4.62 65.3,14.27 24.57,14.06 39.41,42.29 39.41,76.54zm-208 -22.16l0 0 0 125.15 -4.42 0c-44.86,-52.56 -72.32,-84.58 -89.72,-104.72 -11.56,-13.56 -20.41,-24.28 -33,-40.46 -0.48,9.42 -0.42,19.1 -0.42,71.2 0,62.06 0,66.58 21.02,66.58l0 5.59c-11.81,-0.23 -22.61,-0.47 -32.76,-0.47 -11.26,0 -19.02,0.24 -29.38,0.47l0 -5.53c21.23,0 21.23,-4.58 21.23,-66.64l0 -120.59 4.42 0c45.16,53.69 72.97,86.55 90.47,106.99 11.59,13.42 19.12,22.67 32.24,39.59 0.48,-9.63 0.42,-19.87 0.42,-77.16 0,-58.39 0,-62.95 -21.61,-62.95l0 -5.55c9.9,0.24 20.47,0.49 30.31,0.49 10.57,0 20.14,-0.25 29.83,-0.49l0 5.55c-18.63,0.18 -18.63,4.56 -18.63,62.95zm1014.48 49.78l0 0 53.64 0 -0.24 -0.89c-22.82,-63.11 -24.72,-68 -25.71,-72.47 -1.44,4.37 -3.37,9.3 -27.46,72.47l-0.23 0.89zm60.27 17.81l0 0 -66.78 0c-18.39,46.24 -19.66,50.03 1.78,50.03l0 5.72c-8.76,-0.23 -19.72,-0.47 -31.82,-0.47 -12.53,0 -19.03,0.24 -24.75,0.47 -8.94,-0.23 -18.36,-0.47 -30.65,-0.47 -12.97,0 -22.79,0.24 -32.99,0.47l0 -5.72c21.46,0 21.46,-3.85 21.46,-65.9l0 -52.24c0,-58.39 0,-62.25 -20.62,-62.25l0 -5.73c9.57,0.24 20.23,0.49 31.49,0.49 12.13,0 24.69,-0.25 31.91,-0.49l0 5.73c-19.81,0 -19.87,3.8 -19.87,62.19l0 52.04c0,59.09 0.42,66.11 18.72,66.11 12.65,0 15.78,-6.9 39.5,-66.11l49.08 -122.76 4.72 0 47.27 122.76c24.12,62.31 26.01,66.16 40.1,66.16l0 5.72c-5,-0.23 -13.97,-0.47 -26.83,-0.47 -13.03,0 -26,0.24 -33.56,0.47l0 -5.72c21.04,0 19.3,-3.67 1.84,-50.03zm-204 5.87l0 0c0,29.17 -21.14,51.93 -59.31,51.93 -15.54,0 -31.85,-4.15 -40.49,-8.31 1.08,-11.14 1.72,-27.18 1.95,-43.68l5.58 0c0.36,12.82 3.79,21.1 9.6,26.1 5.6,4.88 13.79,6.87 23.42,6.87 21.07,0 35.4,-11.68 35.4,-29.69 0,-11.38 -4.24,-20.41 -14.99,-28.93 -7.07,-5.59 -14.93,-10.95 -25.35,-17.76 -20.44,-13.5 -31.88,-28.8 -31.88,-50.16 0,-28.01 22.55,-49.75 55.78,-49.75 11.63,0 24.27,2.16 33.24,5.18 -0.96,14.15 -1.32,29.01 -1.5,41.99l-5.54 0c0.27,-11.66 -1.99,-17.84 -7.44,-22.33 -4.24,-3.63 -11.5,-5.85 -19.72,-5.85 -17.82,0 -31.4,10.79 -31.4,28.37 0,9.77 4.61,18.54 12.92,25.8 6.38,5.33 14.15,11.09 25.95,18.8 19,12.51 33.78,26.97 33.78,51.42zm-222.43 -21.92l0 0 0 -52.06c0,-58.39 0,-62.25 -18.06,-62.25l0 -5.73c11.17,0.18 27.04,0.49 48.2,0.49 22.85,0 47.06,-0.25 63.68,-0.49 -1.03,13.38 -1.75,27.77 -1.87,42.33l-5.39 0c-0.81,-20.01 -4.94,-23.74 -25.08,-23.74l-38.53 0 0 65.78 28.3 0c21.73,0 27.79,-0.42 29.38,-12.54l5.18 0c-0.51,6.44 -0.96,13.88 -0.96,21.03 0,8.38 0.45,16.45 0.96,24.34l-5.12 0c-1.48,-13.77 -7.22,-14.54 -28.78,-14.54l-28.96 0 0 59.62c0,9.58 0.48,10.11 9.84,10.18 11.96,0.06 23.39,0.15 36.82,0 13.67,-0.24 20.47,-1.93 22.58,-21.71l5.36 0c-0.66,11.62 -1.6,27.07 -1.6,41.09 -17.22,-0.23 -41.54,-0.47 -64.09,-0.47 -22.58,0 -39.62,0.24 -51.12,0.47l0 -5.72c19.26,0 19.26,-3.85 19.26,-66.08zm-251.73 -25.55l0 0c0,-43.9 -32.34,-76.52 -73.64,-76.52 -41.73,0 -73.82,32.62 -73.82,78.09 0,46.89 32.51,78.51 73.33,78.51 41.25,0 74.13,-31.11 74.13,-80.08zm25.25 -1.42l0 0c0,57.74 -41.88,101.36 -100.7,101.36 -54.13,0 -97.54,-41.24 -97.54,-97.33 0,-58.78 44.04,-98.98 101.39,-98.98 54.86,0 96.85,39.24 96.85,94.95zm-630.89 -25.15l0 0 0 52.04c0,62.25 0,66.16 21.91,66.16l0 5.72c-8.94,-0.23 -21,-0.47 -33.32,-0.47 -12.98,0 -22.78,0.24 -32.95,0.47l0 -5.72c21.42,0 21.42,-3.85 21.42,-65.9l0 -52.24c0,-58.39 0,-62.25 -20.63,-62.25l0 -5.73c9.59,0.24 20.24,0.49 31.54,0.49 12.12,0 24.67,-0.25 31.91,-0.49l0 5.73c-19.82,0 -19.88,3.8 -19.88,62.19zm-271.28 52.12l0 0 0 -52.06c0,-58.39 0,-62.25 -20.63,-62.25l0 -5.73c8.9,0.24 19.84,0.49 31.9,0.49 12.06,0 21.86,-0.25 31.32,-0.49l0 5.73c-19.26,0 -19.7,3.91 -19.7,59.66l0 22.19 39.44 -45.75c27.04,-31.47 28.54,-36.1 11.16,-36.1l0 -5.73c12.17,0.24 20.65,0.49 30.85,0.49 10.39,0 20.68,-0.25 27.65,-0.49l0 5.73c-14.35,0 -16.58,4.42 -45.41,36.8l-42.51 48.84 51 58.26c28.36,32.64 33.57,36.49 46.61,36.49l0 5.72c-7.22,-0.23 -17.48,-0.47 -29.93,-0.47 -12.15,0 -22.02,0.24 -34.53,0.47l0 -5.72c20.68,0 15.41,-5.35 -9.56,-35.16l-44.27 -52.13 -0.5 24.19c0,59.31 0.06,63.1 21.71,63.1l0 5.72c-11.1,-0.23 -19.89,-0.47 -32.06,-0.47 -12.42,0 -24.48,0.24 -33.98,0.47l0 -5.72c21.44,0 21.44,-3.85 21.44,-66.08zm-59.75 -51.54l0 0 0 125.15 -4.44 0c-44.86,-52.56 -72.3,-84.58 -89.68,-104.72 -11.56,-13.56 -20.45,-24.28 -33.02,-40.46 -0.46,9.42 -0.4,19.1 -0.4,71.2 0,62.06 0,66.58 21,66.58l0 5.59c-11.82,-0.23 -22.6,-0.47 -32.77,-0.47 -11.23,0 -14.71,0.24 -25.04,0.47 -5.02,-0.23 -9.67,-0.47 -22.53,-0.47 -13.02,0 -26,0.24 -33.58,0.47l0 -5.72c21.06,0 19.3,-3.67 1.85,-50.03l-66.77 0c-18.4,46.24 -19.67,50.03 1.76,50.03l0 5.72c-8.77,-0.23 -19.74,-0.47 -31.83,-0.47 -12.54,0 -21.66,0.24 -27.39,0.47l0 -5.72c14.48,0 16.59,-3.73 41.65,-66.16l49.04 -122.76 4.71 0 47.27 122.76c22.68,58.52 25.74,65.47 37.71,66.11 15.06,0.77 15,-11.08 15,-66.4l0 -120.59 4.47 0c45.13,53.69 72.98,86.55 90.43,106.99 11.59,13.42 19.14,22.67 32.24,39.59 0.5,-9.63 0.44,-19.87 0.44,-77.16 0,-58.39 0,-62.95 -21.62,-62.95l0 -5.55c9.89,0.24 20.44,0.49 30.3,0.49 10.55,0 20.17,-0.25 29.82,-0.49l0 5.55c-18.62,0.18 -18.62,4.56 -18.62,62.95zm-278.88 49.78l0 0 53.65 0 -0.25 -0.89c-22.82,-63.11 -24.73,-68 -25.71,-72.47 -1.46,4.37 -3.4,9.3 -27.44,72.47l-0.25 0.89zm-80.79 19.44l0 0c0,-19.26 -13.88,-29.3 -25.44,-32.57 -6.04,-1.72 -13.85,-2.81 -22.32,-2.81 -2.71,0 -7.25,0.08 -9.71,0.32l0 59.86c0,7.35 0.34,8.25 3.32,9.4 3.21,1.14 8.58,1.32 12.5,1.32 7.88,0 16.95,-2.29 21.73,-4.58 11.49,-4.9 19.92,-14.75 19.92,-30.94zm-8.2 -87.19l0 0c0,-21.71 -14.65,-32.56 -35.77,-32.56 -6.59,0 -10.85,0.5 -13.5,0.74l0 65.76c1.91,0.1 4.75,0.25 7.37,0.25 4.37,0 11.43,-0.38 17.16,-2.16 11.56,-3.4 24.74,-12.67 24.74,-32.03zm31.77 87.97l0 0c0,18.06 -8.01,32.27 -19.69,40.73 -12.34,8.85 -27.5,12.86 -49.21,12.86 -9.18,0 -19.17,-0.72 -27.83,-0.72 -6.08,0 -15.85,0.24 -26.97,0.41l0 -5.66c20.68,0 20.68,-3.85 20.68,-66.08l0 -52.06c0,-58.39 0,-62.25 -18.47,-62.25l0 -5.14c7.65,0.05 19.58,-0.1 27.15,-0.1 6.42,0 15.64,-0.55 26,-0.55 10.3,0 20.35,1.2 27.38,3.26 17.1,4.78 32.64,19.24 32.64,44.86 0,23.42 -17.66,40.84 -35.17,43.74 24.31,3.21 43.49,21.65 43.49,46.7zm1466.46 -70l0 0 0 125.15 -4.45 0c-44.89,-52.56 -72.32,-84.58 -89.69,-104.72 -11.56,-13.56 -20.47,-24.28 -33.02,-40.46 -0.48,9.42 -0.43,19.1 -0.43,71.2 0,62.06 0,66.58 21.02,66.58l0 5.59c-11.83,-0.23 -22.58,-0.47 -32.76,-0.47 -11.26,0 -19.03,0.24 -29.35,0.47l0 -5.53c21.23,0 21.23,-4.58 21.23,-66.64l0 -120.59 4.42 0c45.16,53.69 72.98,86.55 90.47,106.99 11.56,13.42 19.14,22.67 32.21,39.59 0.51,-9.63 0.45,-19.87 0.45,-77.16 0,-58.39 0,-62.95 -21.61,-62.95l0 -5.55c9.9,0.24 20.41,0.49 30.32,0.49 10.5,0 20.11,-0.25 29.77,-0.49l0 5.55c-18.58,0.18 -18.58,4.56 -18.58,62.95z"/>
 </g>
</svg>
