<?xml version="1.0" encoding="UTF-8"?>
<!DOCTYPE svg PUBLIC "-//W3C//DTD SVG 1.1//EN" "http://www.w3.org/Graphics/SVG/1.1/DTD/svg11.dtd">
<!-- Creator: CorelDRAW 2019 (64-Bit) -->
<svg xmlns="http://www.w3.org/2000/svg" xml:space="preserve" width="521px" height="480px" version="1.1" style="shape-rendering:geometricPrecision; text-rendering:geometricPrecision; image-rendering:optimizeQuality; fill-rule:evenodd; clip-rule:evenodd"
viewBox="0 0 521 480.21"
 xmlns:xlink="http://www.w3.org/1999/xlink"
 xmlns:xodm="http://www.corel.com/coreldraw/odm/2003">
 <defs>
  <style type="text/css">
   <![CDATA[
    .fil0 {fill:#E9232A;fill-rule:nonzero}
   ]]>
  </style>
 </defs>
 <g id="Layer_x0020_1">
  <metadata id="CorelCorpID_0Corel-Layer"/>
  <path class="fil0" d="M17.36 470.83c-9.91,-5.16 -17.71,-9.68 -17.35,-10.05 1.27,-1.26 48.67,-11.38 81.77,-17.45 71.63,-13.13 156.79,-23.64 241.62,-29.81 34.93,-2.55 161.31,-2.63 183.23,-0.13l14.37 1.65 -16.2 0.25c-28.75,0.45 -94.7,5.06 -146.37,10.24 -97.81,9.81 -206.54,27.89 -285.2,47.43 -16.06,3.99 -31.15,7.25 -33.53,7.25 -2.38,0 -12.44,-4.22 -22.34,-9.38zm136.74 -98.44l0 0c-1.47,-4.06 4.68,-5.88 7.36,-7.03 12.04,-5.17 20.51,-13.58 23.35,-23.19 1.35,-4.6 5.49,-30.6 9.18,-57.77 3.7,-27.17 7.01,-48.18 7.38,-49.42 0.27,-0.91 0.99,-4.15 4.89,-4.5 9.95,-0.1 17.34,0.03 27.53,0.03 5.63,-0.54 4.53,5.62 4.09,9.57 -0.45,4.99 -1.79,14.62 -3.35,26.36 -1.91,14.33 -4.76,35.74 -6.34,47.58 -3.54,26.62 -5.5,34.82 -11.63,48.53 -7.28,16.31 -18.42,25.79 -38.62,32.54 -4.08,1.28 -15.77,5.25 -17.05,1.72 -2.64,-8.47 -4.51,-15.82 -6.79,-24.42zm231.91 -8.93l0 0c-13.45,-5.43 -12.82,-26.41 1.3,-35.02 8.93,-5.45 21.49,-4.52 27.94,1.93 15.89,15.89 -7.48,41.87 -29.24,33.09zm-101.72 -12.53l0 0c-39.57,-6.76 -39.3,-53.94 -30.44,-80.9 11.1,-31.2 38.15,-40.27 60.38,-41.06 18.76,-0.64 44.77,2.85 51.3,6.88 1.81,1.12 0.96,11.93 -4.08,52.04 -3.5,27.84 -7.32,51.78 -8.5,53.2 -6.26,7.55 -48.24,13.56 -68.66,9.84zm34.52 -37.34l0 0c4.25,-15.8 6.04,-30.07 9.08,-46.74 -0.38,-5.75 -10.08,-5.79 -12.55,-5.8 -12.84,0 -20.43,7.21 -24.45,23.24 -5.52,21.99 0.24,34.25 16.09,34.25 5.02,-0.47 10.25,-0.19 11.83,-4.95zm-289.19 24.61l0 0c10.82,-26.43 54.26,-121.03 64.69,-140.63 1.97,-4.88 7.16,-5.85 10.71,-6.19 10.22,-0.47 19.05,-0.34 28.03,-0.27 9.24,0.08 9.38,3.32 10.57,10.19 1.45,6.85 19.49,114.54 23.57,140.4 0.52,4.29 1.57,5.62 -4.01,5.63 -7.75,0.02 -26.38,1.03 -32.71,0.56 -2.02,-0.27 -3.34,-1.59 -3.65,-3.08 -0.58,-2.78 -1.23,-7.54 -1.67,-12.5l-1.15 -12.88 -23.22 0 -23.21 0 -5.07 12.39c-1.81,4.4 -3.78,8.75 -5.25,11.63 -1.03,2.64 -2.56,3.86 -4.86,4.36 -5.68,-0.05 -25.82,0.7 -33.39,0.03 -3.75,-1.72 -0.36,-7.24 0.62,-9.64zm90.28 -54.63l0 0c-0.65,-6.95 -5.09,-42.84 -6.14,-48.14 -0.27,-0.57 -0.4,-0.38 -0.68,-0.05 -2.75,4.12 -17.58,40.54 -20.11,49 -0.3,1.17 0.45,1.59 1.56,1.5 3.76,-0.26 19.15,-0.55 23.82,-0.73 1.34,-0.1 1.47,-0.57 1.55,-1.58zm267.9 17.45l0 0c0.6,-4.69 1.91,-17.42 2.92,-28.29 1.01,-10.87 2.62,-27.85 3.58,-37.73 0.74,-7.49 1.38,-14.77 1.66,-18.6 0.56,-3.44 4.71,-3.84 7.44,-3.87 9.09,0.1 17.65,-0.44 25.83,0.32 3.86,0.39 5.48,1.24 5.5,3.54 -3.69,18.92 -16.94,84.18 -17.96,88.22 -0.88,3.49 -1.24,4.51 -6.56,4.82 -6.51,-0.11 -11.95,0.23 -18.56,0.2 -3.79,-0.05 -4.81,-1.16 -3.85,-8.61zm-183.47 -96.96l0 0c0,-11.53 7.42,-20.31 16.71,-24.01 8.02,-2.81 17.02,-2.8 21.81,2.67 8.5,9.88 2.92,24.48 -7.01,32.09 -12.72,8.75 -31.31,3.58 -31.51,-10.75zm227.94 -24.3l0 0c-2.78,-6.17 -11.7,-25.65 -19.81,-43.29 -8.12,-17.63 -14.33,-33.18 -13.81,-34.55 0.53,-1.36 9.57,-12.6 20.11,-24.97l17.14 -20.13c1.12,-1.35 2.41,-3.01 3.96,-3.04 10.33,0.06 21.04,0.67 30.9,0.58 7.34,-0.07 11.04,-0.54 5.59,4.99 -3.49,4.32 -10.36,12.22 -18.22,20.89 -11.37,12.54 -20.66,23.13 -20.66,23.54 0,0.41 8.52,19.13 18.93,41.6 8.18,17.65 14.94,33.44 17.22,40.04 0.97,2.24 0.12,4.16 -1.96,4.68 -2.76,0.64 -7.72,0.89 -16.25,0.89l-12.78 0c-3.12,0.33 -5.41,-0.22 -6.61,-2.89l-3.75 -8.34zm-382.39 -13.14l0 0c-11.5,-5.73 -16.94,-12.98 -17.93,-23.91 -0.59,-6.55 10.13,-94.61 14.87,-122.61 1.16,-6.58 1.66,-6.95 7.97,-6.95l12.4 0c6.52,0 12.45,-0.11 16.18,0.1 5.1,0.08 4.16,3.29 3.77,7.13 -0.87,8.59 -3.6,27.19 -7.03,51.14 -6.08,42.5 -7.63,57.49 -6.17,59.8 1.7,2.7 6.02,3.15 34.67,3.58l25.62 0.38c6.11,-0.34 7.37,1.16 6.77,6.64 -1.5,9.07 -2.32,16.3 -3.8,24.42 -1.02,5.08 -4.3,3.75 -9.4,4.06l-29.95 0.42c-38.42,0.48 -38.62,0.46 -47.97,-4.2zm295.48 3.27l0 0c-0.39,-0.75 0.68,-11.05 2.38,-22.91 1.7,-11.86 5.24,-37.32 7.88,-56.59 7.48,-54.69 9.94,-71.17 10.98,-77.48 1.1,-7.35 1.11,-6.95 8.32,-6.95l11.43 0c4.46,0 7.94,-0.05 10.63,0.03 10.27,0.34 8.96,-0.55 6.37,15.35 -0.98,6.01 -4.24,32.45 -7.24,54.68 -7.57,55.98 -12.54,90.31 -13.45,92.97 -0.85,2.49 -36.03,3.33 -37.3,0.9zm-195.32 -4.27l0 0c4.77,-40 9.33,-70.25 14.62,-107.48 0.4,-4.46 4.78,-4.97 9.9,-4.98 5.82,0 11.74,-0.08 17.28,0.1 10.74,0.04 13.56,1.48 12.45,8.66 -4.76,34.95 -10.64,66.14 -16.81,101.68 -1.16,6.01 -2.56,5.83 -8.31,5.83 -6.7,0.03 -18.58,0.25 -24.64,0.08 -3.56,-0.62 -4.36,-1.03 -4.49,-3.89zm75.8 -89.56l0 0c2.94,-15.47 4.98,-17.88 9.26,-20.68 5.28,-3.46 44.29,-7.07 57.76,-5.34 1.88,0.27 3.67,0.61 5.37,1.01 39.46,9.37 33.32,54.05 30.76,74.6 -2.71,19.64 -5.36,37.52 -5.9,39.74 -0.94,3.87 -1.78,4.04 -19.65,4.04 -6,0 -9.14,-0.2 -12.55,-0.52 -5.52,-0.36 -6.03,-1.6 -5.48,-5.62 2.01,-16.4 4.72,-30.55 6.74,-45.87 2.72,-20.91 2,-41.56 -23.95,-37.12 -4.45,1.13 -5.66,1.49 -6.27,5.92 -3.24,20.66 -6.09,42 -9.05,62.2 -0.65,4.82 -1.56,9.86 -2.49,14.33 -0.24,1.13 -0.37,2.15 -0.58,2.9 -0.26,0.9 -0.88,1.82 -1.47,0.9 -4.16,-7.59 -23.78,-6.32 -31.97,-0.75 -4.1,2.86 -4.95,4.39 -3.27,-4.31 0.29,-1.85 0.58,-3.69 0.86,-5.53 4.06,-26.66 6.8,-52.88 11.88,-79.9zm-56.01 -45.78l0 0c-4.39,-14.95 8.66,-29.72 23.27,-30.23 19.8,-1.33 25.27,25.91 5.01,38.26 -11.73,5.37 -24.06,4.23 -28.28,-8.03z"/>
 </g>
</svg>
